<?xml version="1.0" standalone="no"?>
<!DOCTYPE svg PUBLIC "-//W3C//DTD SVG 20010904//EN"
 "http://www.w3.org/TR/2001/REC-SVG-20010904/DTD/svg10.dtd">
<svg version="1.0" xmlns="http://www.w3.org/2000/svg"
 width="640.000000pt" height="480.000000pt" viewBox="0 0 640.000000 480.000000"
 preserveAspectRatio="xMidYMid meet">

<g transform="translate(0.000000,480.000000) scale(0.100000,-0.100000)"
fill="#000000" stroke="none">
<path d="M477 4733 c-24 -38 -141 -226 -260 -420 l-217 -352 0 -348 0 -348 68
-41 c232 -141 770 -462 1017 -607 622 -365 585 -343 883 -516 78 -46 148 -81
155 -78 7 2 222 355 478 783 414 691 543 908 830 1394 41 68 137 230 214 360
l141 235 -660 3 c-362 1 -661 1 -662 -1 -2 -2 31 -136 72 -298 42 -161 108
-423 148 -582 l72 -287 -35 -10 c-129 -34 -496 -122 -856 -205 -527 -120 -598
-136 -600 -133 -10 11 -375 1443 -375 1468 0 6 12 12 28 16 134 30 124 32
-141 33 l-257 1 -43 -67z m676 -1918 c-3 -9 -8 -14 -10 -11 -3 3 -2 9 2 15 9
16 15 13 8 -4z"/>
<path d="M1501 4709 c-206 -49 -376 -91 -377 -92 -2 -2 25 -115 60 -252 149
-585 218 -850 221 -853 4 -4 1097 249 1111 257 8 5 -146 628 -245 989 l-12 42
-192 -1 -192 -1 -374 -89z m-75 -204 c-3 -8 -9 -21 -12 -29 -3 -9 4 -19 17
-27 20 -10 25 -9 41 11 12 14 22 20 28 14 12 -12 -52 -121 -66 -114 -10 5 -10
16 0 41 5 10 -1 19 -18 27 -22 10 -27 9 -36 -8 -10 -19 -40 -28 -40 -13 0 18
66 113 78 113 9 0 12 -6 8 -15z m154 -80 c22 -14 40 -30 40 -35 0 -14 -27 -13
-36 1 -4 7 -18 -7 -35 -35 -16 -25 -36 -46 -44 -46 -20 0 -19 4 10 50 29 46
31 58 10 66 -15 6 -11 24 6 24 5 0 27 -11 49 -25z m90 -87 c0 -20 4 -29 13
-25 70 26 78 14 37 -58 -21 -37 -36 -52 -46 -48 -12 4 -11 10 6 38 25 41 25
48 1 35 -32 -17 -41 -12 -41 23 l0 32 -21 -35 c-28 -46 -28 -45 -40 -33 -8 8
-1 27 25 68 31 47 39 55 51 45 8 -7 15 -26 15 -42z m-297 -46 c-5 -11 -3 -13
7 -7 8 5 18 1 27 -11 8 -10 17 -18 21 -17 4 1 5 -8 3 -20 -3 -21 -2 -21 19 3
l21 25 -12 -25 c-11 -22 -11 -24 3 -12 13 10 19 10 31 -3 9 -8 20 -15 26 -15
17 0 23 -19 11 -37 -9 -16 -10 -15 -5 5 4 13 2 22 -4 22 -6 0 -11 -4 -11 -10
0 -5 -5 -10 -11 -10 -5 0 -7 6 -3 13 5 8 2 7 -9 -2 -18 -14 -32 -9 -32 11 0 6
-8 12 -19 14 -23 3 -46 24 -27 24 7 0 9 5 6 10 -5 8 -11 7 -21 -1 -12 -10 -16
-9 -20 8 -4 14 -12 19 -24 16 -22 -6 -35 14 -20 31 15 19 50 9 43 -12z m430
-16 c-4 -6 -17 -28 -30 -48 l-23 -37 30 -18 c17 -9 30 -21 30 -25 0 -17 -18
-14 -57 11 l-42 26 35 57 c24 38 40 55 49 51 8 -3 12 -10 8 -17z m137 -71 c16
-19 6 -45 -20 -52 -24 -6 -21 -29 4 -25 20 4 21 -14 1 -22 -8 -3 -12 -12 -9
-21 8 -19 6 -19 -43 5 -22 10 -43 26 -46 35 -7 18 1 45 14 45 5 0 19 11 31 25
24 28 50 32 68 10z m-347 -50 c-1 -12 2 -14 10 -6 8 8 15 6 28 -5 9 -8 26 -16
38 -17 25 -2 26 -7 7 -32 -12 -16 -16 -17 -30 -6 -9 7 -13 17 -10 22 3 5 -2 6
-11 3 -12 -5 -14 -2 -8 12 5 16 4 17 -8 8 -9 -8 -22 -9 -36 -3 -26 10 -28 14
-10 34 16 18 32 13 30 -10z m460 -17 c31 -16 48 -41 36 -52 -5 -6 -17 -2 -29
12 -12 12 -27 22 -35 22 -16 0 -45 -27 -45 -41 0 -25 23 -49 45 -49 14 0 25
-5 25 -10 0 -19 -28 -22 -58 -6 -49 25 -56 72 -17 111 27 28 46 31 78 13z
m-301 -72 c7 4 7 -2 3 -17 -7 -21 -6 -22 9 -10 12 10 19 11 29 2 10 -8 17 -7
25 1 7 7 12 8 12 2 0 -6 -5 -15 -10 -20 -7 -7 0 -9 20 -8 33 2 36 -3 16 -28
-17 -23 -17 -23 -51 6 -18 16 -25 28 -19 37 6 11 3 10 -10 -1 -16 -12 -20 -12
-30 1 -6 9 -16 14 -22 12 -6 -2 -16 2 -22 10 -9 10 -7 19 5 37 l17 24 9 -27
c5 -15 13 -24 19 -21z m426 -6 c12 -12 22 -25 22 -30 0 -16 -27 -11 -34 5 -5
14 -36 22 -36 10 0 -3 10 -19 22 -36 26 -35 17 -62 -23 -67 -28 -3 -75 40 -64
58 4 7 15 2 32 -16 18 -19 27 -24 36 -15 8 8 5 17 -11 34 -50 53 3 106 56 57z
m92 -55 c17 -9 30 -22 30 -30 0 -19 -9 -19 -32 2 -12 11 -22 13 -28 7 -7 -7
-4 -17 10 -29 24 -22 26 -58 4 -76 -13 -11 -20 -11 -41 1 -30 17 -50 46 -40
56 4 4 17 -2 30 -14 13 -12 26 -22 30 -22 14 0 6 28 -13 45 -24 22 -25 38 -4
59 19 20 18 20 54 1z m-374 -31 c-3 -8 -2 -12 4 -9 11 7 70 -22 70 -34 0 -5
-7 -14 -15 -21 -12 -10 -16 -9 -21 3 -3 9 -2 22 2 29 5 8 1 8 -11 -2 -14 -11
-19 -12 -22 -2 -3 6 -9 10 -14 6 -10 -6 -13 29 -2 39 11 12 15 8 9 -9z m109
-54 c3 -11 13 -20 21 -20 8 0 13 -6 12 -12 -2 -7 3 -12 10 -10 8 1 12 -2 10
-8 -2 -7 -7 -11 -11 -11 -4 1 -14 1 -23 1 -11 0 -14 5 -10 16 4 12 1 14 -13 9
-23 -7 -35 8 -26 35 8 26 22 26 30 0z m85 -47 c0 -5 -7 -17 -15 -27 -15 -20
-20 -10 -9 18 6 16 24 22 24 9z m27 -29 c8 -21 -13 -42 -28 -27 -13 13 -5 43
11 43 6 0 13 -7 17 -16z m38 -14 c3 -5 1 -10 -4 -10 -6 0 -10 -4 -8 -9 1 -5
-1 -9 -5 -10 -5 -1 -8 1 -8 4 0 3 0 12 0 20 0 17 16 20 25 5z"/>
<path d="M1340 4289 c0 -5 5 -7 10 -4 6 3 10 8 10 11 0 2 -4 4 -10 4 -5 0 -10
-5 -10 -11z"/>
<path d="M1895 4191 c-7 -12 12 -24 25 -16 11 7 4 25 -10 25 -5 0 -11 -4 -15
-9z"/>
<path d="M1850 4136 c0 -14 24 -29 33 -19 3 3 3 11 0 19 -7 18 -33 18 -33 0z"/>
<path d="M1650 4104 c0 -8 5 -12 10 -9 6 4 8 11 5 16 -9 14 -15 11 -15 -7z"/>
<path d="M1715 4070 c-3 -5 -1 -10 4 -10 6 0 11 5 11 10 0 6 -2 10 -4 10 -3 0
-8 -4 -11 -10z"/>
<path d="M1825 4000 c-3 -5 -1 -10 4 -10 6 0 11 5 11 10 0 6 -2 10 -4 10 -3 0
-8 -4 -11 -10z"/>
<path d="M1980 3900 c0 -5 5 -10 10 -10 6 0 10 5 10 10 0 6 -4 10 -10 10 -5 0
-10 -4 -10 -10z"/>
<path d="M4832 4635 c-111 -164 -117 -177 -112 -245 2 -41 8 -52 20 -45 5 3 4
19 -1 35 -16 45 1 82 112 241 120 172 124 179 106 179 -7 0 -64 -74 -125 -165z"/>
<path d="M4889 4648 c-58 -84 -111 -164 -118 -176 -18 -34 -6 -67 34 -92 19
-12 35 -23 35 -25 0 -2 -19 -1 -42 1 l-43 4 40 -10 c21 -6 106 -52 187 -102
l148 -91 -25 -43 c-14 -23 -25 -47 -25 -52 0 -6 199 -134 443 -285 243 -151
540 -335 660 -410 l217 -136 0 785 0 784 -550 0 c-302 0 -549 -4 -547 -9 3
-11 -55 -90 -66 -91 -5 0 -5 5 -2 10 11 19 -24 10 -37 -9 -10 -14 -23 -18 -50
-16 -31 3 -37 0 -40 -18 -2 -16 -14 -24 -45 -32 -23 -5 -51 -21 -63 -35 -12
-14 -26 -24 -31 -22 -5 1 -9 -5 -9 -13 0 -9 -12 -18 -29 -21 -23 -5 -31 -12
-33 -33 -2 -14 -7 -24 -13 -21 -5 3 -9 9 -7 13 1 5 -2 6 -8 2 -7 -4 -7 -12 0
-26 6 -11 7 -25 3 -32 -10 -16 -10 -37 -1 -64 6 -18 4 -21 -10 -16 -33 12 -82
54 -82 72 0 10 40 74 88 142 146 207 154 219 140 219 -8 0 -61 -69 -119 -152z
m334 39 c6 4 1 -8 -12 -25 -12 -18 -25 -32 -27 -32 -3 0 2 10 10 21 8 12 13
26 12 33 -2 6 -1 8 1 3 3 -4 10 -4 16 0z"/>
<path d="M5250 4760 c-8 -5 -12 -11 -10 -14 3 -2 14 2 24 10 22 15 10 19 -14
4z"/>
<path d="M4620 4285 c-7 -9 -11 -18 -8 -20 3 -3 11 1 18 10 7 9 11 18 8 20 -3
3 -11 -1 -18 -10z"/>
<path d="M4835 3909 c-15 -22 -25 -48 -23 -56 2 -9 43 -41 92 -71 68 -42 93
-53 105 -45 22 13 60 83 54 98 -6 16 -167 115 -187 115 -9 0 -27 -18 -41 -41z
m105 -43 c0 -3 -4 -8 -10 -11 -5 -3 -10 -1 -10 4 0 6 5 11 10 11 6 0 10 -2 10
-4z m13 -21 c-3 -9 -8 -14 -10 -11 -3 3 -2 9 2 15 9 16 15 13 8 -4z m20 -10
c-3 -9 -8 -14 -10 -11 -3 3 -2 9 2 15 9 16 15 13 8 -4z"/>
<path d="M3838 3873 c7 -3 16 -2 19 1 4 3 -2 6 -13 5 -11 0 -14 -3 -6 -6z"/>
<path d="M3890 3860 c8 -5 20 -10 25 -10 6 0 3 5 -5 10 -8 5 -19 10 -25 10 -5
0 -3 -5 5 -10z"/>
<path d="M4775 3802 c-17 -11 -105 -158 -105 -174 0 -16 159 -118 183 -118 17
0 121 166 114 183 -4 10 -168 117 -179 117 -2 0 -8 -4 -13 -8z m85 -102 c0 -5
-5 -10 -11 -10 -5 0 -7 -5 -3 -12 4 -7 3 -8 -4 -4 -6 4 -9 13 -5 21 6 17 23
20 23 5z m-38 -57 c-6 -2 -10 -8 -7 -13 6 -9 -23 -35 -31 -27 -10 10 17 47 34
46 10 0 12 -3 4 -6z"/>
<path d="M5104 3802 c-16 -11 -54 -78 -54 -95 0 -14 170 -127 191 -127 13 0
59 77 59 99 0 13 -23 33 -72 64 -98 60 -112 67 -124 59z m86 -102 c0 -5 -4
-10 -10 -10 -5 0 -10 5 -10 10 0 6 5 10 10 10 6 0 10 -4 10 -10z m53 -64 c4
-10 1 -13 -8 -9 -8 3 -12 9 -9 14 7 12 11 11 17 -5z"/>
<path d="M4998 3652 c-27 -32 -98 -153 -98 -167 0 -15 159 -115 183 -115 16 0
117 153 117 176 0 7 -33 32 -72 57 -112 69 -113 69 -130 49z m102 -76 c0 -2
-8 -10 -17 -17 -16 -13 -17 -12 -4 4 13 16 21 21 21 13z m-65 -104 c-15 -16
-16 -15 -4 12 7 15 15 23 17 16 3 -7 -3 -19 -13 -28z"/>
<path d="M5315 3620 c-14 -22 -25 -48 -25 -57 0 -21 175 -134 195 -127 19 8
59 88 53 105 -6 15 -169 119 -187 119 -6 0 -22 -18 -36 -40z m125 -73 c0 -7
-4 -6 -10 3 -8 12 -10 12 -10 1 0 -8 -3 -12 -6 -8 -9 9 6 28 17 22 5 -4 9 -12
9 -18z"/>
<path d="M4579 3494 c-37 -63 -49 -91 -43 -102 14 -22 283 -184 297 -179 18 7
107 154 107 176 0 12 -44 45 -141 104 -78 48 -147 87 -155 87 -7 0 -36 -39
-65 -86z m84 -71 c3 6 6 4 6 -7 1 -16 3 -16 17 -6 13 12 14 10 3 -13 -13 -29
-33 -38 -22 -10 5 12 2 15 -10 10 -9 -3 -16 -2 -14 3 1 5 -7 16 -18 25 -19 16
-19 16 7 1 20 -12 28 -12 31 -3z"/>
<path d="M5180 3435 c-29 -47 -50 -91 -47 -98 2 -7 44 -36 92 -64 68 -41 91
-50 102 -42 19 16 103 157 103 174 0 15 -159 115 -183 115 -9 0 -38 -37 -67
-85z m157 -11 c8 -22 -18 -37 -36 -20 -7 8 -10 19 -7 25 10 16 36 13 43 -5z
m58 -24 c3 -6 -1 -7 -10 -4 -11 5 -14 2 -8 -12 5 -13 3 -15 -7 -9 -10 6 -12 4
-7 -9 4 -10 3 -15 -3 -11 -14 9 -12 42 3 48 19 8 25 8 32 -3z m-105 -45 c0 -9
-7 -18 -15 -21 -8 -4 -12 -11 -8 -17 3 -6 1 -7 -5 -3 -17 10 -15 26 3 26 8 0
15 5 15 11 0 5 -5 7 -12 3 -7 -4 -8 -3 -4 4 10 17 26 15 26 -3z"/>
<path d="M5310 3419 c0 -5 5 -7 10 -4 6 3 10 8 10 11 0 2 -4 4 -10 4 -5 0 -10
-5 -10 -11z"/>
<path d="M5550 3464 c-16 -25 -27 -51 -24 -57 6 -16 170 -117 189 -117 19 0
68 74 63 96 -3 17 -162 124 -186 124 -7 0 -26 -21 -42 -46z m154 -63 c3 -5 -1
-14 -8 -20 -10 -8 -16 -9 -21 -1 -3 6 -11 7 -17 4 -7 -4 -8 -2 -4 5 6 9 11 9
21 1 8 -7 15 -7 19 -1 3 5 0 12 -6 14 -9 4 -10 6 -1 6 6 1 14 -3 17 -8z"/>
<path d="M4058 3394 c-29 -44 -14 -19 -556 -904 -472 -770 -428 -696 -443
-747 -15 -51 0 -122 36 -169 22 -29 141 -107 469 -309 72 -45 122 -81 113 -83
-14 -3 -14 -5 0 -21 9 -12 23 -16 36 -13 13 3 18 1 13 -6 -6 -11 18 -22 59
-26 12 -2 94 -47 182 -101 153 -93 239 -151 186 -126 -53 26 -51 7 3 -28 63
-41 102 -84 128 -142 9 -19 14 -25 11 -14 -4 17 2 23 27 31 18 5 32 15 30 22
-3 16 3 15 38 -3 20 -10 35 -31 49 -67 11 -29 20 -44 20 -34 1 19 1 19 24 0
26 -24 71 -44 95 -43 10 0 12 3 5 6 -7 2 -13 9 -13 14 0 6 20 -2 43 -16 24
-14 58 -25 75 -25 29 0 152 -64 152 -80 0 -3 6 -7 13 -7 19 0 68 -34 62 -43
-3 -5 0 -12 6 -16 8 -4 9 -3 5 4 -4 7 -4 12 0 12 14 0 192 -115 188 -121 -2
-4 4 -6 14 -5 9 0 16 -5 14 -12 -1 -8 2 -11 7 -8 15 9 118 -60 124 -83 5 -20
55 -55 244 -169 77 -46 112 -62 140 -62 l37 0 -70 44 c-38 23 -121 75 -185
114 -72 44 -120 81 -127 96 -13 29 -62 62 -362 245 -163 99 -223 131 -249 131
-34 0 -65 17 -496 285 -104 65 -269 166 -365 225 -365 222 -656 403 -688 427
-66 50 -90 143 -54 213 24 47 824 1350 873 1422 50 73 121 207 117 220 -2 6
-15 -7 -30 -28z m232 -2634 c6 -11 8 -20 6 -20 -3 0 -10 9 -16 20 -6 11 -8 20
-6 20 3 0 10 -9 16 -20z"/>
<path d="M5412 3294 c-29 -48 -51 -92 -49 -98 5 -14 169 -116 185 -116 6 0 34
39 63 86 39 65 50 91 42 102 -12 20 -153 111 -173 111 -9 1 -38 -36 -68 -85z
m154 -6 c4 -6 3 -8 -3 -5 -12 8 -26 -20 -18 -34 4 -5 -1 -6 -9 -3 -19 7 -19 9
-6 35 12 22 25 24 36 7z m48 -36 c2 -4 1 -14 -4 -21 -10 -17 -31 -5 -23 14 6
16 19 20 27 7z m-94 -41 c0 -4 -6 -15 -13 -26 -11 -14 -16 -15 -22 -5 -5 8 -4
11 2 7 13 -8 26 20 16 35 -3 7 -1 8 5 4 7 -4 12 -11 12 -15z"/>
<path d="M4931 3290 c-28 -45 -51 -89 -51 -99 0 -27 167 -128 189 -114 22 14
110 163 105 177 -5 12 -169 116 -183 116 -5 0 -32 -36 -60 -80z m124 -50 c9
-15 -4 -50 -19 -50 -22 0 -36 22 -25 42 11 20 34 24 44 8z"/>
<path d="M5020 3220 c0 -13 5 -18 15 -14 8 4 15 12 15 20 0 8 -7 14 -15 14 -8
0 -15 -9 -15 -20z"/>
<path d="M5786 3315 c-23 -38 -26 -48 -15 -61 16 -20 170 -114 186 -114 17 0
66 87 60 104 -7 17 -165 116 -187 116 -8 0 -28 -20 -44 -45z m99 -45 c-4 -13
-2 -20 6 -20 7 0 10 -2 7 -5 -3 -3 -12 -3 -21 1 -13 5 -14 9 -4 25 15 25 20
24 12 -1z m50 -18 c-6 -7 -34 11 -29 19 3 5 11 3 19 -4 7 -6 12 -13 10 -15z
m-5 -16 c0 -3 -4 -8 -10 -11 -5 -3 -10 -1 -10 4 0 6 5 11 10 11 6 0 10 -2 10
-4z"/>
<path d="M4476 3328 c-7 -13 -30 -49 -50 -82 -21 -32 -36 -65 -34 -74 3 -15
333 -222 354 -222 15 0 114 155 114 178 -1 18 -325 222 -354 222 -8 0 -22 -10
-30 -22z m54 -22 c0 -3 -4 -8 -10 -11 -5 -3 -10 -1 -10 4 0 6 5 11 10 11 6 0
10 -2 10 -4z m-6 -81 c6 -18 -39 -71 -49 -56 -3 6 -1 19 4 28 7 12 10 14 11 4
0 -11 3 -11 15 -1 19 15 10 31 -13 24 -14 -5 -15 -4 -2 5 20 14 27 14 34 -4z"/>
<path d="M3558 3272 c-3 -55 -9 -79 -27 -104 l-24 -33 25 23 c39 35 62 135 39
171 -5 8 -10 -12 -13 -57z"/>
<path d="M5688 3223 c-8 -10 -35 -51 -59 -92 -43 -74 -43 -74 -22 -90 45 -37
164 -103 175 -98 20 7 111 165 105 180 -5 13 -135 99 -168 112 -9 3 -22 -2
-31 -12z m105 -80 c-7 -3 -9 -11 -6 -19 3 -9 -1 -14 -12 -14 -9 0 -14 3 -12 8
2 4 7 15 10 25 4 11 12 15 19 11 9 -6 9 -9 1 -11z m-43 -79 c0 -8 -4 -12 -10
-9 -6 3 -7 -1 -4 -9 3 -9 2 -16 -4 -16 -18 0 -21 29 -4 39 22 13 22 14 22 -5z"/>
<path d="M5214 3222 c-17 -12 -104 -157 -104 -175 0 -16 156 -117 182 -117 19
0 120 164 113 182 -5 12 -30 29 -145 97 -19 11 -40 17 -46 13z m43 -116 c-4
-10 -1 -13 9 -9 7 3 14 0 14 -6 0 -6 -6 -11 -14 -11 -8 0 -16 -6 -19 -12 -2
-7 -7 -10 -11 -7 -7 7 10 59 20 59 3 0 4 -7 1 -14z m33 -41 c-13 -14 -26 -23
-28 -20 -7 6 29 44 42 44 5 1 -1 -10 -14 -24z"/>
<path d="M6030 3174 c-35 -55 -35 -57 -15 -74 37 -31 170 -110 180 -107 13 5
64 79 65 95 0 11 -149 115 -186 129 -8 3 -25 -13 -44 -43z"/>
<path d="M4354 3122 c-16 -11 -104 -157 -104 -173 0 -18 228 -159 246 -152 7
2 36 43 64 89 39 64 49 88 41 98 -10 12 -224 146 -232 146 -2 0 -9 -4 -15 -8z
m16 -142 c0 -5 -2 -10 -4 -10 -3 0 -8 5 -11 10 -3 6 -1 10 4 10 6 0 11 -4 11
-10z m-16 -32 c4 6 12 12 19 12 6 0 2 -6 -8 -14 -24 -17 -35 -12 -34 17 1 20
2 20 8 -3 5 -17 9 -21 15 -12z"/>
<path d="M4867 3058 c-78 -124 -80 -128 -67 -143 21 -25 170 -107 184 -102 19
8 116 166 110 180 -4 12 -173 117 -187 117 -3 0 -21 -24 -40 -52z m98 -116
c-6 -24 -8 -25 -16 -9 -6 10 -14 15 -20 12 -18 -12 -8 7 14 25 25 21 32 12 22
-28z"/>
<path d="M4945 2960 c-3 -5 -1 -10 4 -10 6 0 11 5 11 10 0 6 -2 10 -4 10 -3 0
-8 -4 -11 -10z"/>
<path d="M5912 3073 c-61 -90 -93 -154 -83 -167 20 -24 163 -107 179 -104 19
4 114 156 110 176 -3 13 -162 121 -180 122 -4 0 -15 -12 -26 -27z m93 -63 c-3
-5 -1 -10 5 -10 6 0 8 -4 5 -10 -3 -5 -1 -10 6 -10 10 0 10 -3 2 -11 -16 -16
-30 -4 -27 23 3 28 3 28 10 28 3 0 2 -4 -1 -10z m-30 -92 c-2 -22 -35 -40 -35
-19 0 6 8 7 18 4 14 -6 15 -4 5 9 -7 8 -10 18 -6 21 12 13 20 7 18 -15z"/>
<path d="M3268 3083 c6 -2 18 -2 25 0 6 3 1 5 -13 5 -14 0 -19 -2 -12 -5z"/>
<path d="M3145 3061 c-33 -10 -73 -24 -90 -30 -35 -14 -235 -131 -235 -137 0
-3 33 14 73 36 112 64 206 106 276 123 35 9 66 19 69 22 10 10 -34 3 -93 -14z"/>
<path d="M5426 3058 c-7 -13 -30 -49 -50 -81 -20 -31 -36 -64 -36 -72 0 -16
155 -115 181 -115 17 0 119 152 119 176 0 13 -163 114 -184 114 -9 0 -22 -10
-30 -22z m91 -106 c-9 -2 -15 -8 -12 -13 4 -5 2 -9 -4 -9 -6 0 -7 -8 -4 -17 6
-16 5 -16 -10 -5 -15 13 -15 16 -1 37 10 16 21 22 32 17 16 -6 16 -7 -1 -10z"/>
<path d="M6265 3024 c-15 -25 -24 -51 -21 -59 4 -12 78 -64 134 -94 22 -12 22
-11 22 68 l0 79 -44 26 c-25 14 -49 26 -54 26 -6 0 -22 -21 -37 -46z"/>
<path d="M5134 2962 c-21 -13 -106 -162 -102 -179 3 -18 153 -113 178 -113 19
0 122 163 115 181 -3 8 -27 26 -53 42 -26 15 -65 38 -87 52 -22 13 -45 21 -51
17z m72 -124 c5 -7 3 -8 -6 -3 -9 5 -10 2 -6 -13 8 -24 -11 -39 -27 -23 -9 9
-8 11 4 6 13 -5 15 -1 12 19 -5 26 10 36 23 14z"/>
<path d="M4590 2869 c-28 -45 -50 -89 -48 -97 2 -9 43 -41 91 -70 67 -42 91
-52 101 -43 7 6 35 46 61 88 34 56 45 81 38 92 -12 18 -160 111 -178 111 -7 0
-36 -37 -65 -81z m140 -41 c0 -6 -6 -5 -15 2 -8 7 -15 14 -15 16 0 2 7 1 15
-2 8 -4 15 -11 15 -16z m-40 -48 c0 -5 -2 -10 -4 -10 -3 0 -8 5 -11 10 -3 6
-1 10 4 10 6 0 11 -4 11 -10z"/>
<path d="M6100 2865 c-41 -68 -49 -89 -40 -100 21 -26 160 -107 177 -103 17 3
113 152 113 175 0 14 -161 113 -183 113 -9 0 -38 -37 -67 -85z m147 -17 c-3
-8 -6 -5 -6 6 -1 11 2 17 5 13 3 -3 4 -12 1 -19z m-44 -72 c7 -19 -18 -42 -28
-26 -8 13 1 40 14 40 5 0 11 -6 14 -14z"/>
<path d="M5620 2858 c-28 -46 -49 -89 -48 -97 2 -8 42 -39 91 -69 70 -44 90
-52 102 -42 8 6 35 47 61 91 35 61 44 83 35 93 -17 20 -159 106 -176 106 -8 0
-37 -37 -65 -82z m128 -62 c-8 -6 -17 -16 -19 -23 -3 -8 -7 -8 -16 2 -9 10 -8
18 4 34 12 18 17 20 30 10 13 -11 13 -14 1 -23z"/>
<path d="M4150 2800 c-34 -55 -60 -106 -57 -113 3 -7 44 -37 91 -66 72 -44 89
-51 102 -40 8 7 40 54 71 106 46 77 53 96 43 108 -17 20 -157 105 -174 105 -8
0 -42 -45 -76 -100z m45 -110 c-10 -16 -35 8 -28 25 4 12 7 12 20 0 8 -8 11
-20 8 -25z"/>
<path d="M2676 2853 c-6 -14 -5 -15 5 -6 7 7 10 15 7 18 -3 3 -9 -2 -12 -12z"/>
<path d="M2603 2742 c-62 -96 -76 -122 -65 -122 5 0 14 12 20 26 7 14 33 57
58 95 25 39 44 72 42 75 -2 2 -27 -31 -55 -74z"/>
<path d="M5327 2768 c-59 -93 -70 -115 -65 -130 8 -21 159 -109 181 -106 12 2
39 35 70 85 42 69 48 85 37 98 -17 21 -158 105 -175 105 -9 0 -30 -24 -48 -52z
m113 -73 c16 -19 -3 -45 -31 -45 -21 0 -24 12 -9 41 13 23 23 24 40 4z"/>
<path d="M5410 2680 c-9 -16 -8 -20 5 -20 8 0 15 9 15 20 0 11 -2 20 -5 20 -2
0 -9 -9 -15 -20z"/>
<path d="M4820 2725 c-28 -47 -50 -92 -47 -99 8 -20 173 -117 189 -111 16 7
108 157 108 176 0 15 -161 119 -184 119 -7 0 -37 -38 -66 -85z m121 -59 c-12
-5 -20 -15 -17 -22 3 -8 0 -11 -10 -7 -20 7 -18 21 5 28 14 4 18 11 14 23 -6
15 -5 15 11 2 17 -14 17 -15 -3 -24z"/>
<path d="M6331 2726 c-28 -46 -51 -88 -51 -93 0 -10 50 -46 98 -72 l22 -12 0
131 c0 71 -4 130 -9 130 -4 0 -31 -38 -60 -84z"/>
<path d="M5850 2714 c-38 -62 -51 -91 -44 -101 5 -8 46 -37 91 -65 69 -42 85
-49 98 -38 25 21 106 162 101 175 -5 15 -164 115 -182 115 -6 0 -35 -39 -64
-86z m133 -41 c2 -5 -4 -16 -15 -25 -10 -10 -18 -14 -18 -9 0 6 5 13 10 16 6
4 8 11 5 16 -4 5 -2 9 4 9 5 0 12 -3 14 -7z"/>
<path d="M4381 2660 c-35 -56 -60 -107 -58 -114 8 -20 173 -117 189 -111 16 7
128 188 128 208 0 15 -161 117 -184 117 -7 0 -41 -45 -75 -100z m1 -92 c-7 -7
-12 -8 -12 -2 0 6 3 14 7 17 3 4 9 5 12 2 2 -3 -1 -11 -7 -17z m38 -4 c0 -9 5
-12 12 -8 7 4 8 3 4 -5 -6 -9 -11 -9 -22 0 -16 13 -18 29 -4 29 6 0 10 -7 10
-16z"/>
<path d="M5540 2598 c-28 -46 -49 -89 -48 -97 2 -8 42 -39 91 -69 70 -44 90
-52 102 -42 8 6 35 48 61 92 40 68 45 81 33 94 -23 22 -159 104 -174 104 -8 0
-37 -37 -65 -82z m121 -47 c-8 -5 -10 -14 -6 -22 5 -8 5 -11 0 -7 -4 4 -14 3
-22 -3 -16 -14 -17 -5 -1 21 7 11 20 20 28 20 12 0 13 -2 1 -9z"/>
<path d="M5082 2628 c-52 -76 -84 -137 -77 -147 11 -19 176 -113 188 -108 17
7 107 153 107 175 0 12 -31 36 -88 70 -49 29 -91 52 -95 52 -3 0 -19 -19 -35
-42z m88 -89 c0 -5 4 -8 9 -5 5 4 4 -5 -2 -19 -7 -13 -13 -20 -15 -15 -2 6
-11 10 -20 10 -15 1 -15 2 1 11 9 6 15 14 12 20 -4 5 -1 9 4 9 6 0 11 -5 11
-11z"/>
<path d="M6080 2574 c-40 -65 -51 -91 -43 -102 11 -18 159 -112 176 -112 17 0
120 167 114 183 -5 13 -169 117 -185 117 -5 0 -33 -39 -62 -86z m124 -68 c-10
-8 -21 -12 -24 -9 -3 2 4 11 14 19 11 7 22 12 25 9 2 -3 -4 -12 -15 -19z"/>
<path d="M4668 2603 c-33 -39 -120 -192 -114 -202 12 -18 177 -113 189 -108
17 6 127 185 127 207 0 11 -29 35 -86 69 -47 28 -89 51 -93 51 -4 0 -15 -8
-23 -17z m42 -53 c0 -5 -4 -10 -10 -10 -5 0 -10 5 -10 10 0 6 5 10 10 10 6 0
10 -4 10 -10z m-45 -130 c3 -6 -1 -7 -9 -4 -18 7 -21 14 -7 14 6 0 13 -4 16
-10z m-10 -20 c3 -6 -1 -7 -9 -4 -18 7 -21 14 -7 14 6 0 13 -4 16 -10z"/>
<path d="M5770 2454 c-39 -63 -51 -91 -44 -102 5 -8 46 -37 92 -65 64 -39 84
-47 95 -38 25 20 108 163 103 176 -5 14 -165 115 -182 115 -6 0 -35 -39 -64
-86z m136 -45 c4 -7 0 -9 -14 -5 -24 8 -39 -11 -23 -27 8 -8 11 -8 11 1 0 7 5
12 10 12 16 0 12 -20 -6 -27 -22 -8 -37 11 -29 36 7 22 39 29 51 10z"/>
<path d="M5307 2478 c-18 -29 -44 -71 -57 -92 l-23 -39 20 -17 c47 -38 164
-102 177 -97 19 8 116 166 110 181 -4 11 -173 116 -187 116 -3 0 -21 -24 -40
-52z m108 -78 c3 -6 -1 -7 -9 -4 -21 8 -34 -25 -15 -38 12 -8 11 -9 -1 -5 -20
5 -26 37 -8 48 17 11 26 11 33 -1z"/>
<path d="M6365 2512 c-17 -12 -105 -158 -105 -175 0 -8 30 -33 68 -56 l67 -41
3 127 c3 150 -1 168 -33 145z"/>
<path d="M4874 2423 c-20 -32 -49 -78 -64 -102 -16 -24 -26 -50 -23 -58 7 -18
239 -156 251 -149 19 11 123 197 120 213 -3 16 -218 153 -239 153 -5 0 -25
-26 -45 -57z m-20 -138 c-4 -8 -8 -15 -10 -15 -2 0 -4 7 -4 15 0 8 4 15 10 15
5 0 7 -7 4 -15z m46 -21 c0 -8 5 -14 11 -14 5 0 7 5 4 10 -3 6 -1 10 4 10 15
0 14 -17 -1 -26 -6 -4 -17 1 -25 11 -7 11 -13 15 -13 11 0 -4 -5 -4 -10 -1 -6
4 -8 10 -5 15 8 13 35 0 35 -16z m130 -54 c0 -5 7 -7 15 -4 8 4 15 1 15 -5 0
-6 -7 -11 -16 -11 -8 0 -12 -4 -9 -10 3 -5 1 -10 -4 -10 -6 0 -11 5 -11 11 0
5 -4 7 -10 4 -5 -3 -10 -1 -10 4 0 6 5 11 11 11 5 0 7 5 4 10 -3 6 -1 10 4 10
6 0 11 -4 11 -10z"/>
<path d="M6055 2392 c-6 -4 -33 -42 -59 -86 -37 -59 -47 -83 -39 -94 13 -21
154 -111 174 -111 18 -1 123 165 116 183 -4 10 -169 116 -179 116 -2 0 -8 -4
-13 -8z m50 -121 c-3 -5 0 -13 6 -17 6 -3 15 0 20 7 5 8 9 9 9 3 0 -5 -7 -19
-15 -30 -14 -18 -14 -18 -15 0 0 12 -5 16 -15 12 -17 -6 -18 -4 -9 18 3 9 10
16 16 16 5 0 7 -4 3 -9z"/>
<path d="M5573 2382 c-16 -11 -103 -158 -103 -175 0 -18 154 -117 181 -117 19
0 123 165 113 181 -6 10 -115 83 -160 107 -11 6 -25 8 -31 4z m52 -134 c-6
-19 -5 -21 6 -10 7 6 18 12 24 12 5 -1 -1 -10 -14 -21 -13 -11 -26 -17 -29
-15 -6 6 6 56 14 56 3 0 2 -10 -1 -22z"/>
<path d="M836 2326 c11 -8 114 -67 230 -132 226 -126 551 -312 731 -417 135
-79 153 -89 153 -83 0 3 -247 151 -655 392 -301 177 -440 254 -459 254 -20 0
-20 0 0 -14z"/>
<path d="M600 2311 c0 -6 5 -13 12 -17 7 -4 8 -3 4 4 -9 16 -4 15 44 -4 23 -9
43 -14 46 -11 5 4 -80 37 -98 37 -4 0 -8 -4 -8 -9z"/>
<path d="M5182 2273 c-46 -65 -102 -165 -102 -181 0 -11 35 -38 98 -76 53 -33
297 -183 541 -333 244 -150 452 -273 461 -273 21 0 143 191 135 212 -3 7 -36
32 -73 54 -37 23 -281 172 -542 333 -261 160 -480 291 -486 291 -7 0 -21 -12
-32 -27z"/>
<path d="M570 2270 c0 -15 78 -70 135 -95 85 -38 90 -38 104 -9 6 15 8 30 4
34 -18 17 -179 80 -202 79 -19 0 -11 -6 29 -20 30 -11 67 -25 83 -31 29 -11
38 -48 12 -48 -24 0 -114 49 -141 75 -13 13 -24 20 -24 15z"/>
<path d="M6278 2242 c-28 -32 -98 -149 -98 -164 0 -17 158 -118 183 -118 29 0
38 37 35 141 l-3 100 -51 29 c-48 28 -52 29 -66 12z m72 -141 c-6 -12 -15 -21
-21 -21 -5 0 -2 11 8 24 21 28 29 27 13 -3z"/>
<path d="M5750 2163 c-28 -43 -49 -87 -48 -97 4 -25 152 -118 181 -114 30 4
124 162 108 182 -17 20 -159 106 -176 106 -9 0 -38 -35 -65 -77z m130 -56 c0
-24 -24 -47 -39 -38 -10 7 -11 13 -2 30 13 23 41 29 41 8z"/>
<path d="M5845 2080 c3 -5 8 -10 11 -10 2 0 4 5 4 10 0 6 -5 10 -11 10 -5 0
-7 -4 -4 -10z"/>
<path d="M506 2151 c-4 -6 -4 -11 0 -11 4 0 -1 -6 -12 -14 -18 -14 -18 -15 11
-46 17 -17 57 -44 90 -60 93 -43 98 -44 117 -11 18 33 20 32 -79 61 -23 7 -41
17 -40 23 1 5 -12 14 -30 21 -18 6 -38 17 -45 25 -14 14 -6 14 78 -4 22 -5 25
-4 13 4 -26 16 -96 25 -103 12z m33 -46 c16 -8 32 -11 36 -7 5 4 5 2 2 -4 -3
-6 14 -20 39 -32 42 -21 51 -42 18 -42 -21 0 -95 38 -121 63 -40 36 -25 49 26
22z"/>
<path d="M5997 2048 c-66 -105 -72 -118 -61 -135 5 -8 46 -38 92 -66 67 -41
84 -48 96 -38 8 7 36 49 62 93 40 67 45 82 33 93 -23 22 -163 105 -176 105 -7
0 -28 -24 -46 -52z m79 -94 c-19 -19 -21 -11 -4 16 7 11 14 16 16 10 2 -5 -4
-17 -12 -26z m44 8 c0 -5 -6 -16 -13 -26 -13 -17 -14 -18 -20 -2 -4 10 -3 15
3 11 6 -3 13 1 16 9 7 17 14 21 14 8z"/>
<path d="M396 1992 c-3 -5 8 -7 23 -4 15 2 44 -1 64 -6 21 -6 37 -7 37 -2 0
16 -114 28 -124 12z"/>
<path d="M415 1949 c13 -11 53 -33 87 -49 49 -22 59 -30 45 -36 -29 -11 -97
17 -139 57 -21 20 -38 32 -38 27 0 -28 96 -89 179 -114 44 -13 47 -13 63 9 10
12 18 25 18 28 0 10 -30 21 -68 25 -18 3 -56 16 -85 29 l-52 25 40 -5 c26 -4
35 -2 25 3 -8 5 -34 12 -58 15 l-42 5 25 -19z"/>
<path d="M6252 1948 c-28 -36 -92 -151 -92 -166 0 -19 143 -113 176 -116 10 0
28 14 41 33 19 28 23 47 23 112 l0 78 -59 35 c-64 40 -74 42 -89 24z m68 -116
c0 -4 -9 -13 -20 -20 -19 -12 -20 -11 -8 8 13 20 28 27 28 12z m24 -36 c-3
-14 -10 -26 -15 -26 -5 0 -5 8 -2 18 6 15 5 15 -10 3 -9 -7 -17 -9 -17 -3 0 9
42 42 48 37 2 -1 0 -14 -4 -29z"/>
<path d="M1091 1928 c-8 -13 -15 -30 -16 -38 -1 -8 -5 -26 -8 -40 -4 -14 4 -1
18 28 27 55 31 89 6 50z"/>
<path d="M5010 1853 c8 -3 65 -36 125 -73 61 -37 182 -111 270 -165 88 -54
216 -132 285 -175 69 -42 186 -114 260 -160 149 -91 194 -119 258 -161 23 -16
42 -25 42 -20 0 5 -208 137 -462 293 -664 409 -763 468 -779 467 -11 0 -11 -2
1 -6z"/>
<path d="M364 1824 c33 -8 61 -12 63 -10 7 7 -68 26 -97 25 -14 0 2 -7 34 -15z"/>
<path d="M281 1796 c-10 -12 -8 -20 12 -40 30 -30 107 -70 166 -86 38 -10 44
-9 57 7 27 36 13 51 -56 60 -39 4 -126 40 -118 48 3 3 17 1 32 -4 15 -6 26 -7
26 -1 0 5 -17 12 -37 15 -21 4 -45 9 -54 11 -9 2 -22 -2 -28 -10z m35 -7 c4
-6 37 -26 75 -43 78 -36 84 -62 9 -40 -49 14 -124 70 -115 85 8 12 22 11 31
-2z"/>
<path d="M1007 1749 c7 -7 15 -10 18 -7 3 3 -2 9 -12 12 -14 6 -15 5 -6 -5z"/>
<path d="M745 1442 c-99 -169 -307 -525 -462 -791 l-283 -484 0 -84 0 -83 28
0 c37 0 47 9 61 52 7 20 18 42 26 48 8 7 26 36 39 66 14 30 30 54 35 54 6 0
10 3 9 8 -4 15 32 82 46 88 8 3 12 12 9 20 -3 8 0 14 6 14 6 0 11 9 11 20 0
12 10 31 22 44 13 13 24 30 26 37 2 8 10 21 18 30 8 8 14 21 14 27 0 6 8 16
18 21 9 6 13 11 9 11 -4 0 -2 10 5 23 7 12 11 25 10 29 -1 5 2 8 7 8 5 0 13 9
16 20 4 11 11 17 17 14 7 -4 8 -2 4 4 -7 11 37 91 57 103 5 4 7 11 3 17 -3 5
1 15 9 22 8 7 15 17 15 22 0 5 9 18 20 30 10 12 17 25 14 30 -3 4 -2 8 3 8 4
0 17 18 27 40 11 22 23 40 28 40 4 0 8 9 8 20 0 11 5 20 10 20 6 0 10 6 10 13
0 7 9 23 20 34 10 12 22 32 25 45 4 14 17 36 29 50 13 13 27 35 31 49 4 13 17
38 29 54 11 17 32 51 46 78 13 26 28 47 33 47 4 0 6 4 3 8 -3 5 9 28 25 53 16
24 37 58 45 74 32 64 39 75 46 75 5 0 8 7 8 15 0 9 11 33 25 55 14 22 25 51
25 65 0 23 -2 24 -20 15 -31 -17 -75 -9 -74 13 1 9 -1 17 -5 17 -3 -1 -87
-139 -186 -308z"/>
<path d="M250 1680 c25 -5 56 -12 70 -15 18 -5 22 -3 14 5 -6 6 -38 13 -70 15
-58 4 -58 4 -14 -5z"/>
<path d="M1960 1686 c0 -3 9 -10 20 -16 11 -6 20 -8 20 -6 0 3 -9 10 -20 16
-11 6 -20 8 -20 6z"/>
<path d="M6386 1653 c-4 -9 -2 -21 4 -27 7 -7 10 -2 10 17 0 31 -5 34 -14 10z"/>
<path d="M180 1646 c-17 -22 1 -48 57 -84 39 -25 164 -69 167 -59 1 1 9 12 20
24 18 21 17 22 -13 37 -16 9 -42 16 -56 16 -31 0 -135 51 -117 57 7 3 26 0 42
-6 17 -5 30 -6 30 -1 0 5 -17 12 -37 15 -21 3 -48 8 -59 10 -12 3 -27 -2 -34
-9z m66 -36 c26 -16 62 -34 81 -41 39 -13 44 -29 8 -29 -36 0 -95 27 -127 57
-53 50 -31 57 38 13z"/>
<path d="M6332 1563 c-43 -61 -102 -164 -102 -178 0 -13 118 -97 157 -112 11
-4 13 22 11 153 -3 154 -4 159 -24 162 -15 2 -28 -6 -42 -25z m-12 -143 c0 -5
8 -11 18 -11 15 -1 16 -2 0 -6 -9 -2 -16 -10 -14 -16 1 -7 1 -9 -1 -4 -3 4
-12 7 -20 7 -12 0 -13 3 -4 13 6 8 8 17 4 20 -3 4 -1 7 5 7 7 0 12 -4 12 -10z"/>
<path d="M107 1523 c-3 -5 27 -8 67 -9 44 -1 63 2 51 7 -26 10 -112 11 -118 2z"/>
<path d="M86 1491 c-4 -6 -2 -11 4 -11 6 0 23 -9 38 -20 15 -11 53 -31 85 -44
49 -20 55 -25 42 -36 -20 -17 -93 10 -141 52 -19 17 -32 23 -28 15 13 -34 115
-89 186 -100 31 -5 39 -2 52 18 15 23 15 25 -6 36 -13 7 -38 13 -56 15 -39 3
-142 51 -142 66 0 9 30 6 85 -9 15 -4 17 -2 9 6 -16 17 -119 27 -128 12z"/>
<path d="M21 1371 c-10 -6 2 -9 38 -9 28 -1 62 -4 74 -8 16 -4 19 -3 11 5 -14
15 -105 24 -123 12z"/>
<path d="M0 1331 c0 -16 65 -61 115 -80 25 -10 45 -22 43 -27 -5 -16 -59 -6
-110 20 -28 15 -46 21 -40 13 19 -22 96 -56 152 -67 46 -9 55 -8 66 7 7 10 14
21 14 25 0 12 -53 35 -72 31 -19 -5 -142 49 -153 67 -6 10 2 12 36 8 24 -3 52
-9 62 -13 9 -4 17 -3 17 3 0 5 -10 12 -22 16 -36 9 -108 7 -108 -3z"/>
<path d="M2800 1310 c-6 -11 -8 -20 -6 -20 3 0 10 9 16 20 6 11 8 20 6 20 -3
0 -10 -9 -16 -20z"/>
<path d="M2638 1267 c-7 -29 -104 -177 -116 -177 -7 0 -10 -5 -7 -11 4 -5 -6
-29 -21 -52 -15 -23 -39 -62 -52 -87 -13 -25 -27 -47 -31 -50 -3 -3 -15 -23
-26 -44 -11 -22 -24 -44 -30 -50 -5 -6 -19 -29 -30 -50 -11 -22 -24 -44 -30
-50 -5 -6 -18 -27 -27 -46 -10 -19 -36 -64 -58 -100 -22 -36 -44 -74 -49 -85
-5 -11 -20 -36 -33 -55 -13 -19 -34 -56 -48 -82 -14 -27 -28 -48 -32 -48 -5 0
-8 -5 -8 -10 0 -6 -27 -55 -59 -110 -33 -54 -67 -113 -76 -129 -15 -31 -15
-31 10 -31 14 0 25 4 25 9 0 7 486 821 544 911 60 92 176 309 176 328 0 24
-17 39 -22 19z"/>
<path d="M2762 1243 c-43 -86 -72 -173 -71 -215 1 -42 2 -42 10 13 4 31 26 97
47 148 41 93 47 121 14 54z"/>
<path d="M4620 1260 c-6 -11 -8 -20 -6 -20 3 0 10 9 16 20 6 11 8 20 6 20 -3
0 -10 -9 -16 -20z"/>
<path d="M10 1210 c8 -5 24 -10 35 -10 17 0 17 2 5 10 -8 5 -24 10 -35 10 -17
0 -17 -2 -5 -10z"/>
<path d="M10 1170 c19 -13 30 -13 30 0 0 6 -10 10 -22 10 -19 0 -20 -2 -8 -10z"/>
<path d="M4564 1168 c-4 -7 -14 -24 -22 -38 -14 -24 -13 -24 3 -5 20 24 37 55
31 55 -3 0 -8 -6 -12 -12z"/>
<path d="M15 1090 c11 -5 29 -11 40 -15 19 -6 19 -7 2 -16 -9 -6 -26 -7 -37
-4 -11 4 -20 2 -20 -4 0 -12 23 -19 75 -22 45 -3 65 5 65 26 0 21 -34 36 -93
40 -35 2 -45 1 -32 -5z"/>
<path d="M4510 1080 c-6 -11 -8 -20 -6 -20 3 0 10 9 16 20 6 11 8 20 6 20 -3
0 -10 -9 -16 -20z"/>
<path d="M4470 1018 c-16 -27 -29 -63 -17 -47 15 19 47 79 43 79 -4 0 -15 -15
-26 -32z"/>
<path d="M3141 946 c-10 -12 -3 -14 41 -14 44 1 48 2 22 8 -17 4 -35 10 -41
13 -6 4 -16 1 -22 -7z"/>
<path d="M0 890 c0 -35 10 -38 34 -11 17 19 17 20 -3 30 -29 16 -31 14 -31
-19z"/>
<path d="M3020 560 c8 -5 20 -10 25 -10 6 0 3 5 -5 10 -8 5 -19 10 -25 10 -5
0 -3 -5 5 -10z"/>
<path d="M3582 490 c0 -14 2 -19 5 -12 2 6 2 18 0 25 -3 6 -5 1 -5 -13z"/>
<path d="M5237 249 c7 -7 15 -10 18 -7 3 3 -2 9 -12 12 -14 6 -15 5 -6 -5z"/>
<path d="M3882 98 c-14 -14 -16 -28 -2 -28 5 0 14 9 20 20 12 22 1 27 -18 8z"/>
</g>
</svg>
